<?xml version="1.0" standalone="no"?>
<!DOCTYPE svg PUBLIC "-//W3C//DTD SVG 20010904//EN"
 "http://www.w3.org/TR/2001/REC-SVG-20010904/DTD/svg10.dtd">
<svg version="1.0" xmlns="http://www.w3.org/2000/svg"
 width="512.000000pt" height="512.000000pt" viewBox="0 0 512.000000 512.000000"
 preserveAspectRatio="xMidYMid meet">

<g transform="translate(0.000000,512.000000) scale(0.100000,-0.100000)"
fill="#000000" stroke="none">
<path d="M2280 4675 c-720 -100 -1337 -549 -1646 -1200 -85 -179 -141 -356
-181 -575 -25 -136 -25 -544 0 -680 87 -471 279 -844 601 -1166 321 -321 699
-516 1161 -600 121 -22 442 -30 576 -15 591 68 1126 374 1476 845 207 277 333
573 398 931 22 123 31 423 16 566 -104 995 -891 1788 -1886 1899 -122 13 -399
11 -515 -5z m366 -854 c69 -32 101 -84 247 -403 l138 -303 317 -49 c174 -27
333 -55 352 -63 106 -43 159 -173 115 -280 -9 -22 -79 -102 -168 -193 -83 -85
-192 -196 -241 -246 l-88 -92 56 -351 c36 -226 54 -364 50 -386 -11 -61 -57
-120 -115 -149 -63 -31 -117 -33 -175 -7 -22 10 -158 84 -301 165 -143 80
-266 146 -273 146 -7 0 -141 -70 -297 -157 -161 -88 -303 -159 -326 -164 -52
-9 -125 10 -170 44 -44 33 -77 101 -77 156 0 23 25 191 55 372 l55 331 -248
257 c-231 239 -250 261 -261 307 -15 61 -4 119 34 175 44 67 89 81 440 134
171 26 314 51 319 55 5 5 73 145 151 312 151 322 183 372 255 395 53 17 111
15 156 -6z"/>
</g>
</svg>
